# xmcd CD database file
#
# Track frame offsets:
#	150
#	16056
#	38347
#	59524
#	84129
#	99455
#	126219
#	143996
#	169733
#	189698
#
# Disc length: 2846 seconds
#
# Revision: 0
# Processed by: cddbd v1.5.2PL0 Copyright (c) Steve Scherf et al.
# Submitted via: CDex 1.74
#
DISCID=780b1c0a
DTITLE=Tauk - Homonculus
DYEAR=2013
DGENRE=Jazz
TTITLE0=Dead Signal
TTITLE1=Afro-Tonic
TTITLE2=Hello Narwhal
TTITLE3=The Spot
TTITLE4=The Chemist
TTITLE5=Dirty Mouth
TTITLE6=Curtain Calls
TTITLE7=Carpentino's Rebirth
TTITLE8=When In Doubt
TTITLE9=In the Basement of the Alamo
EXTD=YEAR: 2013
EXTT0=
EXTT1=
EXTT2=
EXTT3=
EXTT4=
EXTT5=
EXTT6=
EXTT7=
EXTT8=
EXTT9=
PLAYORDER=
